<mxfile host="app.diagrams.net" modified="2023-12-28T22:36:11.536Z" agent="Mozilla/5.0 (Windows NT 10.0; Win64; x64) AppleWebKit/537.36 (KHTML, like Gecko) Chrome/120.0.0.0 Safari/537.36" etag="OWpjRgJIiiqEFE_3Y5vl" version="22.1.15" type="github" pages="2">
  <diagram id="prtHgNgQTEPvFCAcTncT" name="EAP">
    <mxGraphModel dx="1195" dy="650" grid="1" gridSize="10" guides="1" tooltips="1" connect="1" arrows="0" fold="1" page="1" pageScale="1" pageWidth="827" pageHeight="1169" math="0" shadow="0">
      <root>
        <mxCell id="0" />
        <mxCell id="1" parent="0" />
        <mxCell id="MXugya-MfVNxB4QQbrh8-13" value="" style="edgeStyle=elbowEdgeStyle;rounded=0;orthogonalLoop=1;jettySize=auto;html=1;elbow=vertical;endArrow=none;strokeColor=#23445D;fontColor=#000000;endFill=0;strokeWidth=4;" edge="1" parent="1" source="MXugya-MfVNxB4QQbrh8-9" target="MXugya-MfVNxB4QQbrh8-12">
          <mxGeometry relative="1" as="geometry" />
        </mxCell>
        <mxCell id="MXugya-MfVNxB4QQbrh8-15" value="" style="edgeStyle=elbowEdgeStyle;rounded=0;orthogonalLoop=1;jettySize=auto;html=1;elbow=vertical;endArrow=none;strokeColor=#23445D;fontColor=#000000;endFill=0;strokeWidth=4;" edge="1" parent="1" source="MXugya-MfVNxB4QQbrh8-9" target="MXugya-MfVNxB4QQbrh8-14">
          <mxGeometry relative="1" as="geometry" />
        </mxCell>
        <mxCell id="MXugya-MfVNxB4QQbrh8-17" value="" style="edgeStyle=elbowEdgeStyle;rounded=0;orthogonalLoop=1;jettySize=auto;html=1;elbow=vertical;endArrow=none;strokeColor=#23445D;fontColor=#000000;endFill=0;strokeWidth=4;" edge="1" parent="1" source="MXugya-MfVNxB4QQbrh8-9" target="MXugya-MfVNxB4QQbrh8-16">
          <mxGeometry relative="1" as="geometry" />
        </mxCell>
        <mxCell id="MXugya-MfVNxB4QQbrh8-9" value="&lt;p&gt;PROJETO LUMOS&lt;/p&gt;" style="whiteSpace=wrap;html=1;fillColor=#10739E;strokeColor=none;fontSize=24;fontColor=#FFFFFF;rounded=1;shadow=1;fontStyle=1;" vertex="1" parent="1">
          <mxGeometry x="293" y="10" width="241" height="60" as="geometry" />
        </mxCell>
        <mxCell id="MXugya-MfVNxB4QQbrh8-25" style="edgeStyle=orthogonalEdgeStyle;rounded=0;orthogonalLoop=1;jettySize=auto;html=1;exitX=0;exitY=1;exitDx=0;exitDy=0;entryX=0;entryY=0.5;entryDx=0;entryDy=0;endArrow=none;strokeColor=#23445D;fontColor=#000000;endFill=0;strokeWidth=4;" edge="1" parent="1" source="MXugya-MfVNxB4QQbrh8-12" target="MXugya-MfVNxB4QQbrh8-23">
          <mxGeometry relative="1" as="geometry">
            <Array as="points">
              <mxPoint x="40" y="230" />
            </Array>
          </mxGeometry>
        </mxCell>
        <mxCell id="MXugya-MfVNxB4QQbrh8-26" style="edgeStyle=orthogonalEdgeStyle;rounded=0;orthogonalLoop=1;jettySize=auto;html=1;exitX=0;exitY=1;exitDx=0;exitDy=0;entryX=0;entryY=0.5;entryDx=0;entryDy=0;endArrow=none;strokeColor=#23445D;fontColor=#000000;endFill=0;strokeWidth=4;" edge="1" parent="1" source="MXugya-MfVNxB4QQbrh8-12" target="MXugya-MfVNxB4QQbrh8-22">
          <mxGeometry relative="1" as="geometry" />
        </mxCell>
        <mxCell id="MXugya-MfVNxB4QQbrh8-27" style="edgeStyle=orthogonalEdgeStyle;rounded=0;orthogonalLoop=1;jettySize=auto;html=1;exitX=0;exitY=1;exitDx=0;exitDy=0;entryX=0;entryY=0.5;entryDx=0;entryDy=0;endArrow=none;strokeColor=#23445D;fontColor=#000000;endFill=0;strokeWidth=4;" edge="1" parent="1" source="MXugya-MfVNxB4QQbrh8-12" target="MXugya-MfVNxB4QQbrh8-24">
          <mxGeometry relative="1" as="geometry" />
        </mxCell>
        <mxCell id="MXugya-MfVNxB4QQbrh8-35" style="edgeStyle=orthogonalEdgeStyle;rounded=0;orthogonalLoop=1;jettySize=auto;html=1;exitX=0;exitY=1;exitDx=0;exitDy=0;entryX=0;entryY=0.5;entryDx=0;entryDy=0;endArrow=none;strokeColor=#23445D;fontColor=#000000;endFill=0;strokeWidth=4;" edge="1" parent="1" source="MXugya-MfVNxB4QQbrh8-12" target="MXugya-MfVNxB4QQbrh8-28">
          <mxGeometry relative="1" as="geometry" />
        </mxCell>
        <mxCell id="MXugya-MfVNxB4QQbrh8-12" value="PLANEJAMENTO E DOCUMENTAÇÃO" style="whiteSpace=wrap;html=1;fontSize=14;fillColor=#F2931E;strokeColor=none;fontColor=#FFFFFF;rounded=1;shadow=1;fontStyle=1;" vertex="1" parent="1">
          <mxGeometry x="40" y="120" width="160" height="60" as="geometry" />
        </mxCell>
        <mxCell id="MXugya-MfVNxB4QQbrh8-42" style="edgeStyle=elbowEdgeStyle;rounded=0;orthogonalLoop=1;jettySize=auto;html=1;exitX=0.5;exitY=1;exitDx=0;exitDy=0;entryX=0.5;entryY=0;entryDx=0;entryDy=0;elbow=vertical;endArrow=none;strokeColor=#23445D;fontColor=#000000;endFill=0;strokeWidth=4;" edge="1" parent="1" source="MXugya-MfVNxB4QQbrh8-14" target="MXugya-MfVNxB4QQbrh8-37">
          <mxGeometry relative="1" as="geometry" />
        </mxCell>
        <mxCell id="MXugya-MfVNxB4QQbrh8-43" style="edgeStyle=elbowEdgeStyle;rounded=0;orthogonalLoop=1;jettySize=auto;html=1;exitX=0.5;exitY=1;exitDx=0;exitDy=0;entryX=0.5;entryY=0;entryDx=0;entryDy=0;elbow=vertical;endArrow=none;strokeColor=#23445D;fontColor=#000000;endFill=0;strokeWidth=4;" edge="1" parent="1" source="MXugya-MfVNxB4QQbrh8-14" target="MXugya-MfVNxB4QQbrh8-38">
          <mxGeometry relative="1" as="geometry" />
        </mxCell>
        <mxCell id="MXugya-MfVNxB4QQbrh8-44" style="edgeStyle=elbowEdgeStyle;rounded=0;orthogonalLoop=1;jettySize=auto;html=1;exitX=0.5;exitY=1;exitDx=0;exitDy=0;entryX=0.5;entryY=0;entryDx=0;entryDy=0;elbow=vertical;endArrow=none;strokeColor=#23445D;fontColor=#000000;endFill=0;strokeWidth=4;" edge="1" parent="1" source="MXugya-MfVNxB4QQbrh8-14" target="MXugya-MfVNxB4QQbrh8-39">
          <mxGeometry relative="1" as="geometry" />
        </mxCell>
        <mxCell id="MXugya-MfVNxB4QQbrh8-45" style="edgeStyle=elbowEdgeStyle;rounded=0;orthogonalLoop=1;jettySize=auto;html=1;exitX=0.5;exitY=1;exitDx=0;exitDy=0;entryX=0.5;entryY=0;entryDx=0;entryDy=0;elbow=vertical;endArrow=none;strokeColor=#23445D;fontColor=#000000;endFill=0;strokeWidth=4;" edge="1" parent="1" source="MXugya-MfVNxB4QQbrh8-14" target="MXugya-MfVNxB4QQbrh8-41">
          <mxGeometry relative="1" as="geometry" />
        </mxCell>
        <mxCell id="MXugya-MfVNxB4QQbrh8-14" value="DESENVOLVIMENTO" style="whiteSpace=wrap;html=1;fontSize=14;fillColor=#F2931E;strokeColor=none;fontColor=#FFFFFF;rounded=1;shadow=1;fontStyle=1;" vertex="1" parent="1">
          <mxGeometry x="333.5" y="120" width="160" height="60" as="geometry" />
        </mxCell>
        <mxCell id="MXugya-MfVNxB4QQbrh8-47" style="edgeStyle=elbowEdgeStyle;rounded=0;orthogonalLoop=1;jettySize=auto;html=1;exitX=0;exitY=1;exitDx=0;exitDy=0;entryX=0;entryY=0.5;entryDx=0;entryDy=0;endArrow=none;strokeColor=#23445D;fontColor=#000000;endFill=0;strokeWidth=4;" edge="1" parent="1" source="MXugya-MfVNxB4QQbrh8-16" target="MXugya-MfVNxB4QQbrh8-46">
          <mxGeometry relative="1" as="geometry">
            <Array as="points">
              <mxPoint x="640" y="200" />
            </Array>
          </mxGeometry>
        </mxCell>
        <mxCell id="MXugya-MfVNxB4QQbrh8-51" style="edgeStyle=orthogonalEdgeStyle;rounded=0;orthogonalLoop=1;jettySize=auto;html=1;exitX=0;exitY=1;exitDx=0;exitDy=0;entryX=0;entryY=0.5;entryDx=0;entryDy=0;endArrow=none;strokeColor=#23445D;fontColor=#000000;endFill=0;strokeWidth=4;" edge="1" parent="1" source="MXugya-MfVNxB4QQbrh8-16" target="MXugya-MfVNxB4QQbrh8-49">
          <mxGeometry relative="1" as="geometry">
            <Array as="points">
              <mxPoint x="640" y="310" />
            </Array>
          </mxGeometry>
        </mxCell>
        <mxCell id="MXugya-MfVNxB4QQbrh8-52" style="edgeStyle=orthogonalEdgeStyle;rounded=0;orthogonalLoop=1;jettySize=auto;html=1;exitX=0;exitY=1;exitDx=0;exitDy=0;entryX=0;entryY=0.5;entryDx=0;entryDy=0;endArrow=none;strokeColor=#23445D;fontColor=#000000;endFill=0;strokeWidth=4;" edge="1" parent="1" source="MXugya-MfVNxB4QQbrh8-16" target="MXugya-MfVNxB4QQbrh8-50">
          <mxGeometry relative="1" as="geometry">
            <Array as="points">
              <mxPoint x="640" y="390" />
            </Array>
          </mxGeometry>
        </mxCell>
        <mxCell id="MXugya-MfVNxB4QQbrh8-16" value="ENTREGA" style="whiteSpace=wrap;html=1;fontSize=14;fillColor=#F2931E;strokeColor=none;fontColor=#FFFFFF;rounded=1;shadow=1;fontStyle=1;" vertex="1" parent="1">
          <mxGeometry x="640" y="120" width="160" height="60" as="geometry" />
        </mxCell>
        <mxCell id="MXugya-MfVNxB4QQbrh8-22" value="PROTOTIPAÇÃO" style="rounded=1;whiteSpace=wrap;html=1;fillColor=#12AAB5;strokeColor=none;fontColor=#FFFFFF;shadow=1;" vertex="1" parent="1">
          <mxGeometry x="60" y="440" width="120" height="60" as="geometry" />
        </mxCell>
        <mxCell id="MXugya-MfVNxB4QQbrh8-23" value="DEFINIÇÃO DO ESCOPO" style="rounded=1;whiteSpace=wrap;html=1;fillColor=#12AAB5;strokeColor=none;fontColor=#FFFFFF;shadow=1;" vertex="1" parent="1">
          <mxGeometry x="60" y="200" width="120" height="60" as="geometry" />
        </mxCell>
        <mxCell id="MXugya-MfVNxB4QQbrh8-214" style="edgeStyle=orthogonalEdgeStyle;rounded=0;orthogonalLoop=1;jettySize=auto;html=1;exitX=0;exitY=1;exitDx=0;exitDy=0;entryX=0;entryY=0.5;entryDx=0;entryDy=0;elbow=vertical;endArrow=none;strokeColor=#23445D;fontColor=#000000;endFill=0;strokeWidth=4;" edge="1" parent="1" source="MXugya-MfVNxB4QQbrh8-24" target="MXugya-MfVNxB4QQbrh8-65">
          <mxGeometry relative="1" as="geometry" />
        </mxCell>
        <mxCell id="MXugya-MfVNxB4QQbrh8-217" style="edgeStyle=orthogonalEdgeStyle;rounded=0;orthogonalLoop=1;jettySize=auto;html=1;exitX=0;exitY=1;exitDx=0;exitDy=0;entryX=0;entryY=0.5;entryDx=0;entryDy=0;endArrow=none;strokeColor=#23445D;fontColor=#000000;endFill=0;strokeWidth=4;" edge="1" parent="1" source="MXugya-MfVNxB4QQbrh8-24" target="MXugya-MfVNxB4QQbrh8-215">
          <mxGeometry relative="1" as="geometry" />
        </mxCell>
        <mxCell id="MXugya-MfVNxB4QQbrh8-218" style="edgeStyle=orthogonalEdgeStyle;rounded=0;orthogonalLoop=1;jettySize=auto;html=1;exitX=0;exitY=1;exitDx=0;exitDy=0;entryX=0;entryY=0.5;entryDx=0;entryDy=0;endArrow=none;strokeColor=#23445D;fontColor=#000000;endFill=0;strokeWidth=4;" edge="1" parent="1" source="MXugya-MfVNxB4QQbrh8-24" target="MXugya-MfVNxB4QQbrh8-216">
          <mxGeometry relative="1" as="geometry" />
        </mxCell>
        <mxCell id="MXugya-MfVNxB4QQbrh8-24" value="DIAGRAMAÇÃO" style="rounded=1;whiteSpace=wrap;html=1;fillColor=#12AAB5;strokeColor=none;fontColor=#FFFFFF;shadow=1;" vertex="1" parent="1">
          <mxGeometry x="60" y="520" width="120" height="60" as="geometry" />
        </mxCell>
        <mxCell id="MXugya-MfVNxB4QQbrh8-28" value="ELABORAÇÃO DO CRONOGRANA" style="rounded=1;whiteSpace=wrap;html=1;fillColor=#12AAB5;strokeColor=none;fontColor=#FFFFFF;shadow=1;" vertex="1" parent="1">
          <mxGeometry x="60" y="280" width="120" height="60" as="geometry" />
        </mxCell>
        <mxCell id="MXugya-MfVNxB4QQbrh8-36" value="LEVANTAMENTO DE REQUISITOS" style="rounded=1;whiteSpace=wrap;html=1;fillColor=#12AAB5;strokeColor=none;fontColor=#FFFFFF;shadow=1;" vertex="1" parent="1">
          <mxGeometry x="60" y="360" width="120" height="60" as="geometry" />
        </mxCell>
        <mxCell id="MXugya-MfVNxB4QQbrh8-37" value="SPRINT 1" style="rounded=1;whiteSpace=wrap;html=1;fillColor=#12AAB5;strokeColor=none;fontColor=#FFFFFF;shadow=1;" vertex="1" parent="1">
          <mxGeometry x="213" y="220" width="80" height="40" as="geometry" />
        </mxCell>
        <mxCell id="MXugya-MfVNxB4QQbrh8-38" value="SPRINT 2" style="rounded=1;whiteSpace=wrap;html=1;fillColor=#12AAB5;strokeColor=none;fontColor=#FFFFFF;shadow=1;" vertex="1" parent="1">
          <mxGeometry x="320" y="220" width="80" height="40" as="geometry" />
        </mxCell>
        <mxCell id="MXugya-MfVNxB4QQbrh8-39" value="SPRINT 3" style="rounded=1;whiteSpace=wrap;html=1;fillColor=#12AAB5;strokeColor=none;fontColor=#FFFFFF;shadow=1;" vertex="1" parent="1">
          <mxGeometry x="427" y="220" width="80" height="40" as="geometry" />
        </mxCell>
        <mxCell id="MXugya-MfVNxB4QQbrh8-41" value="SPRINT 4" style="rounded=1;whiteSpace=wrap;html=1;fillColor=#12AAB5;strokeColor=none;fontColor=#FFFFFF;shadow=1;" vertex="1" parent="1">
          <mxGeometry x="534" y="220" width="80" height="40" as="geometry" />
        </mxCell>
        <mxCell id="MXugya-MfVNxB4QQbrh8-46" value="IMPLEMENTAÇÃO" style="rounded=1;whiteSpace=wrap;html=1;fillColor=#12AAB5;strokeColor=none;fontColor=#FFFFFF;shadow=1;" vertex="1" parent="1">
          <mxGeometry x="657" y="200" width="120" height="60" as="geometry" />
        </mxCell>
        <mxCell id="MXugya-MfVNxB4QQbrh8-49" value="TESTES" style="rounded=1;whiteSpace=wrap;html=1;fillColor=#12AAB5;strokeColor=none;fontColor=#FFFFFF;shadow=1;" vertex="1" parent="1">
          <mxGeometry x="657" y="280" width="120" height="60" as="geometry" />
        </mxCell>
        <mxCell id="MXugya-MfVNxB4QQbrh8-50" value="CORREÇÃO DE&amp;nbsp; BUGS&amp;nbsp; E AJUSTES&amp;nbsp; FINAIS" style="rounded=1;whiteSpace=wrap;html=1;fillColor=#12AAB5;strokeColor=none;fontColor=#FFFFFF;shadow=1;" vertex="1" parent="1">
          <mxGeometry x="657" y="360" width="120" height="60" as="geometry" />
        </mxCell>
        <mxCell id="MXugya-MfVNxB4QQbrh8-65" value="MODELAGEM DO BANCO DE DADOS" style="whiteSpace=wrap;rounded=1;fillColor=#999999;strokeColor=none;shadow=1;fontColor=#FFFFFF;fontStyle=0" vertex="1" parent="1">
          <mxGeometry x="80" y="600" width="120" height="40" as="geometry" />
        </mxCell>
        <mxCell id="MXugya-MfVNxB4QQbrh8-215" value="DIAGRAMA DE CLASSE" style="whiteSpace=wrap;rounded=1;fillColor=#999999;strokeColor=none;shadow=1;fontColor=#FFFFFF;fontStyle=0" vertex="1" parent="1">
          <mxGeometry x="80" y="680" width="120" height="40" as="geometry" />
        </mxCell>
        <mxCell id="MXugya-MfVNxB4QQbrh8-216" value="DIAGRAMA DE CASOS DE USO" style="whiteSpace=wrap;rounded=1;fillColor=#999999;strokeColor=none;shadow=1;fontColor=#FFFFFF;fontStyle=0" vertex="1" parent="1">
          <mxGeometry x="80" y="760" width="120" height="40" as="geometry" />
        </mxCell>
      </root>
    </mxGraphModel>
  </diagram>
  <diagram id="TJNguHJeWjnXi_cabJxj" name="Página-2">
    <mxGraphModel dx="989" dy="538" grid="1" gridSize="10" guides="1" tooltips="1" connect="1" arrows="1" fold="1" page="1" pageScale="1" pageWidth="827" pageHeight="1169" math="0" shadow="0">
      <root>
        <mxCell id="0" />
        <mxCell id="1" parent="0" />
      </root>
    </mxGraphModel>
  </diagram>
</mxfile>
